<svg width="146" height="47" viewBox="0 0 146 47" fill="none" xmlns="http://www.w3.org/2000/svg">
<path d="M20.1875 26.6562H10.5312L11.7812 19.4688L18.6562 19.5312C19.8021 19.5104 20.8125 19.2917 21.6875 18.875C22.5833 18.4583 23.3021 17.8542 23.8438 17.0625C24.4062 16.2708 24.7812 15.3021 24.9688 14.1562C25.1146 13.1979 25.1354 12.3438 25.0312 11.5938C24.9271 10.8229 24.6146 10.2083 24.0938 9.75C23.5938 9.27083 22.8021 9.02083 21.7188 9L17.5938 8.96875L11.125 46H0.75L8.59375 0.5L22.0625 0.53125C23.9792 0.552083 25.7812 0.822917 27.4688 1.34375C29.1562 1.84375 30.625 2.59375 31.875 3.59375C33.1458 4.59375 34.1146 5.86458 34.7812 7.40625C35.4479 8.92708 35.7188 10.7396 35.5938 12.8438C35.4479 15.2396 34.8333 17.2396 33.75 18.8438C32.6667 20.4271 31.2188 21.6354 29.4062 22.4688C27.6146 23.3021 25.5729 23.7604 23.2812 23.8438L20.1875 26.6562ZM16.5938 46H4.375L9.46875 37.5625L16.9688 37.625C18.0521 37.5833 18.9688 37.3229 19.7188 36.8438C20.4688 36.3438 21.0625 35.6875 21.5 34.875C21.9583 34.0417 22.2708 33.125 22.4375 32.125C22.5833 31.3958 22.6667 30.625 22.6875 29.8125C22.7292 29 22.5729 28.3021 22.2188 27.7188C21.8854 27.1146 21.2396 26.7708 20.2812 26.6875L11.9062 26.6562L13.25 19.4688L21.9062 19.5L23.7812 22.3438C25.7812 22.4062 27.4583 22.8438 28.8125 23.6562C30.1875 24.4688 31.2083 25.6146 31.875 27.0938C32.5625 28.5729 32.8229 30.3021 32.6562 32.2812C32.4688 35.3854 31.6562 37.9583 30.2188 40C28.8021 42.0417 26.9167 43.5625 24.5625 44.5625C22.2083 45.5625 19.5521 46.0417 16.5938 46ZM43.875 0.5L58.4375 0.53125C61.125 0.59375 63.4375 1.17708 65.375 2.28125C67.3333 3.36458 68.8021 4.90625 69.7812 6.90625C70.7604 8.88542 71.1562 11.2396 70.9688 13.9688C70.8021 16.2812 70.3646 18.3021 69.6562 20.0312C68.9479 21.7604 67.9167 23.2708 66.5625 24.5625C65.2292 25.8333 63.5417 26.9583 61.5 27.9375L57.75 29.9375H45.375L46.7812 21.4688L54.6562 21.5625C55.9479 21.5208 56.9896 21.1979 57.7812 20.5938C58.5729 19.9688 59.1771 19.1667 59.5938 18.1875C60.0104 17.1875 60.2812 16.1146 60.4062 14.9688C60.5312 14.1979 60.625 13.3646 60.6875 12.4688C60.75 11.5521 60.6042 10.7708 60.25 10.125C59.8958 9.45833 59.1771 9.08333 58.0938 9L52.875 8.96875L46.4062 46H36.0312L43.875 0.5ZM55.7812 46L51.4688 25.875L62.0312 25.8125L66.9375 45.4688V46H55.7812ZM89.9688 0.5L82.0938 46H71.6562L79.5625 0.5H89.9688ZM116.188 37.5625L114.719 46H95.3438L96.8438 37.5625H116.188ZM106.906 0.5L99 46H88.625L96.4688 0.5H106.906ZM116.969 18.5625L115.562 26.7188H98.7188L100.156 18.5625H116.969ZM122.719 0.5L121.25 8.96875H101.75L103.25 0.5H122.719ZM145.719 37.5625L144.25 46H125.625L127.125 37.5625H145.719ZM137.219 0.5L129.312 46H118.938L126.781 0.5H137.219Z" fill="black"/>
</svg>
