<svg width="892" height="498" viewBox="0 0 892 498" fill="none" xmlns="http://www.w3.org/2000/svg">
<g clip-path="url(#clip0_169_4911)">
<path d="M892 498H0C9.77441 474.439 27.8208 454.452 53.2688 448.522C90.4899 439.86 129.88 463.679 167.019 454.722C188.119 449.639 204.73 434.827 222.185 422.527C288.036 376.116 378.278 362.4 456.2 386.965C496.931 399.799 534.045 422.242 575.768 431.784C629.722 444.127 686.144 433.89 741.629 432.204C795.667 430.563 873.092 451.376 892 498Z" fill="#F3F5FD"/>
<path d="M371.671 437.125C367.83 435.937 363.888 437.27 360.118 439.982C365.085 428.125 367.135 417.415 358.643 416.932C352.701 416.595 348.149 420.904 344.691 427.031C343.475 416.259 340.337 408.225 333.308 410.889C325.591 413.813 324.417 423.835 325.588 434.321C322.188 428.965 318.528 425.978 315.205 429.12C305.286 438.496 329.632 464.916 329.632 464.916C329.632 464.916 350.574 472.437 358.727 464.372C369.776 453.44 380.843 439.963 371.671 437.125Z" fill="#8DDBE0"/>
<path d="M360.83 498H326.61L320.882 460.238H366.558L360.83 498Z" fill="#C1D8ED"/>
<path d="M527.974 498H404.234C395.157 491.152 394.531 475.725 403.939 468.835C411.19 463.526 422.154 464.946 428.97 470.469C427.696 466.357 427.671 461.99 428.897 457.865C431.113 450.437 436.041 442.892 443.562 439.888C462.759 432.231 476.398 448.274 479.132 457.242C484.048 450.41 495.041 446.799 501.945 451.398C510.687 457.223 510.291 466.406 503.318 472.998C512.612 471.361 519.607 472.624 526.055 479.163C530.954 484.141 531.705 492.622 527.974 498Z" fill="#8DDBE0"/>
<path d="M889.644 498H765.906C756.829 491.152 756.203 475.725 765.611 468.835C772.863 463.526 783.826 464.946 790.642 470.469C789.368 466.357 789.343 461.99 790.569 457.865C792.786 450.437 797.713 442.892 805.235 439.888C824.431 432.231 838.071 448.274 840.804 457.242C845.72 450.41 856.714 446.799 863.618 451.398C872.359 457.223 871.963 466.406 864.99 472.998C874.285 471.361 881.279 472.624 887.727 479.163C892.627 484.141 893.377 492.622 889.644 498Z" fill="#8DDBE0"/>
<path d="M221.274 116.891L219.099 114.981C220.114 113.948 221.139 112.922 222.171 111.903L224.316 113.842C223.293 114.851 222.279 115.868 221.274 116.891Z" fill="#C1D8ED"/>
<path d="M230.496 107.897L228.41 105.901C230.52 103.931 232.683 101.971 234.838 100.074L236.86 102.127C234.727 104.009 232.589 105.951 230.496 107.897ZM634.847 108.013C632.769 106.065 630.634 104.12 628.5 102.232L630.529 100.184C632.68 102.089 634.84 104.053 636.937 106.021L634.847 108.013ZM243.401 96.5376L241.442 94.4319C243.663 92.5869 245.943 90.7492 248.217 88.9688L250.11 91.1304C247.858 92.8904 245.601 94.7107 243.401 96.5376ZM621.977 96.6334C619.779 94.8 617.526 92.9761 615.283 91.2139L617.18 89.0567C619.446 90.8363 621.721 92.6777 623.94 94.5292L621.977 96.6334ZM256.984 85.9076L255.159 83.6952C257.484 81.9816 259.874 80.2731 262.262 78.6191L264.017 80.8823C261.652 82.5196 259.286 84.2107 256.984 85.9076ZM608.422 85.9838C606.118 84.2775 603.753 82.5828 601.401 80.9484L603.159 78.688C605.534 80.3392 607.921 82.0506 610.251 83.7707L608.422 85.9838ZM271.204 76.0559L269.522 73.7441C271.961 72.1575 274.455 70.5877 276.932 69.0775L278.545 71.4358C276.088 72.9301 273.62 74.4847 271.204 76.0559ZM594.222 76.1133C591.816 74.5435 589.35 72.9853 586.893 71.483L588.506 69.1268C590.987 70.6444 593.479 72.2178 595.909 73.8043L594.222 76.1133ZM286.019 67.0255L284.483 64.6229C287.021 63.1758 289.609 61.7504 292.175 60.3861L293.63 62.8309C291.094 64.1821 288.532 65.5929 286.019 67.0255ZM579.421 67.0647C576.909 65.6292 574.351 64.2148 571.809 62.8614L573.269 60.4173C575.834 61.7846 578.421 63.2128 580.959 64.6628L579.421 67.0647ZM301.379 58.8599L300.003 56.3737C302.623 55.0784 305.296 53.8041 307.952 52.5871L309.248 55.1103C306.619 56.3142 303.971 57.579 301.379 58.8577V58.8599ZM564.065 58.8824C561.468 57.5957 558.82 56.3323 556.194 55.127L557.491 52.6031C560.145 53.8208 562.819 55.0972 565.442 56.397L564.065 58.8824ZM317.236 51.5909L316.023 49.03C318.725 47.8871 321.477 46.7711 324.203 45.7118L325.331 48.3068C322.631 49.3553 319.907 50.4633 317.236 51.5909ZM548.207 51.6004C545.532 50.4677 542.807 49.3604 540.106 48.3105L541.234 45.7154C543.964 46.7762 546.718 47.8937 549.421 49.0395L548.207 51.6004ZM333.528 45.2609L332.484 42.6339C335.254 41.6522 338.073 40.6988 340.865 39.8021L341.82 42.4581C339.059 43.3476 336.268 44.2915 333.528 45.2609ZM531.898 45.2609C529.155 44.2864 526.36 43.3425 523.595 42.4531L524.55 39.7963C527.345 40.6952 530.169 41.6493 532.941 42.6339L531.898 45.2609ZM350.2 39.8994L349.332 37.2172C352.157 36.3996 355.033 35.6147 357.881 34.8828L358.659 37.5911C355.841 38.3151 352.996 39.092 350.2 39.8994ZM515.202 39.8907C512.402 39.0818 509.551 38.3034 506.728 37.5788L507.506 34.8712C510.358 35.6038 513.24 36.3895 516.07 37.207L515.202 39.8907ZM367.188 35.5341L366.497 32.8055C369.37 32.1571 372.292 31.5435 375.181 30.9822L375.778 33.7305C372.925 34.2845 370.032 34.8915 367.188 35.5327V35.5341ZM498.179 35.521C495.332 34.8806 492.434 34.2736 489.565 33.7167L490.162 30.9684C493.061 31.5304 495.99 32.144 498.867 32.7917L498.179 35.521ZM384.428 32.181L383.921 29.4168C386.827 28.9405 389.782 28.5012 392.705 28.1098L393.12 30.8886C390.228 31.2748 387.303 31.7105 384.428 32.181ZM480.896 32.1658C478.008 31.6945 475.075 31.2603 472.177 30.8755L472.591 28.0975C475.519 28.4859 478.483 28.9245 481.401 29.4044L480.896 32.1658ZM401.85 29.8561L401.527 27.0671C404.463 26.7636 407.442 26.5001 410.378 26.2844L410.608 29.0813C407.702 29.2948 404.755 29.5562 401.85 29.8561ZM463.417 29.8452C460.511 29.5467 457.554 29.2868 454.628 29.0726L454.858 26.275C457.815 26.4928 460.803 26.7535 463.74 27.0562L463.417 29.8452ZM419.386 28.5643L419.247 25.7616C422.198 25.6316 425.193 25.5438 428.148 25.5002L428.194 28.3059C425.269 28.3487 422.306 28.4358 419.386 28.5643ZM445.814 28.5593C443.018 28.4373 440.174 28.353 437.365 28.3095L437.006 28.3037L437.055 25.498L437.414 25.5039C440.256 25.5481 443.126 25.6331 445.953 25.7565L445.814 28.5593Z" fill="#C1D8ED"/>
<path d="M644.1 117.083C643.098 116.057 642.089 115.038 641.072 114.027L643.223 112.094C644.25 113.116 645.269 114.144 646.281 115.18L644.1 117.083Z" fill="#C1D8ED"/>
<path d="M510.899 52.1426L510.839 2.27598C510.859 1.97342 510.811 1.67034 510.698 1.3867C510.585 1.10306 510.409 0.845272 510.183 0.630308C509.957 0.415345 509.685 0.248075 509.386 0.139505C509.087 0.0309356 508.766 -0.0164731 508.446 0.00039865L445.952 0.057034L383.458 0.00039865C383.138 -0.0160476 382.818 0.0316767 382.519 0.140436C382.22 0.249196 381.949 0.41653 381.723 0.631447C381.497 0.846363 381.322 1.104 381.209 1.38743C381.096 1.67086 381.048 1.97367 381.068 2.27598L381.008 52.1426L381.002 59.5873C380.984 59.8905 381.033 60.1941 381.147 60.4782C381.261 60.7622 381.437 61.0203 381.664 61.2354C381.891 61.4506 382.163 61.6181 382.463 61.7268C382.763 61.8356 383.084 61.8832 383.405 61.8665L394.378 61.8774L431.103 61.9108L431.11 61.934L445.956 61.9224L460.799 61.9362L460.805 61.913L497.532 61.8796L508.5 61.8636C508.821 61.8803 509.142 61.8327 509.442 61.7239C509.742 61.6152 510.014 61.4477 510.241 61.2325C510.468 61.0173 510.644 60.7592 510.758 60.4752C510.871 60.1912 510.921 59.8876 510.902 59.5844L510.899 52.1426Z" fill="#8DDBE0"/>
<path opacity="0.47" d="M503.661 15.8638C501.123 15.8583 498.69 14.9045 496.892 13.2105C495.095 11.5165 494.079 9.21948 494.066 6.82031L445.952 6.8588L397.838 6.82031C397.825 9.21955 396.809 11.5165 395.011 13.2105C393.214 14.9046 390.781 15.8583 388.243 15.8638L388.211 46.0098C389.298 46.0089 390.377 46.1863 391.4 46.534C392.62 46.9456 393.739 47.5845 394.693 48.4126C395.646 49.2408 396.414 50.2415 396.95 51.3553C397.516 52.5251 397.805 53.798 397.795 55.0845L429.135 55.1121L429.142 55.136L445.952 55.1244L462.762 55.136L462.769 55.1121L494.109 55.0845C494.099 53.798 494.388 52.5251 494.954 51.3553C495.491 50.2415 496.259 49.241 497.212 48.4128C498.166 47.5847 499.285 46.9458 500.504 46.534C501.527 46.1863 502.606 46.0089 503.694 46.0098L503.661 15.8638Z" fill="white"/>
<path d="M407.882 36.5062C411.192 36.5062 413.874 33.9703 413.874 30.842C413.874 27.7137 411.192 25.1777 407.882 25.1777C404.573 25.1777 401.89 27.7137 401.89 30.842C401.89 33.9703 404.573 36.5062 407.882 36.5062Z" fill="#8DDBE0"/>
<path d="M484.022 36.5062C487.331 36.5062 490.014 33.9703 490.014 30.842C490.014 27.7137 487.331 25.1777 484.022 25.1777C480.713 25.1777 478.03 27.7137 478.03 30.842C478.03 33.9703 480.713 36.5062 484.022 36.5062Z" fill="#8DDBE0"/>
<path d="M456.516 14.1589C459.44 15.7463 461.891 18.0066 463.643 20.7297C465.395 23.4528 466.39 26.5503 466.536 29.7344C466.626 32.8602 466.536 36.5052 463.047 41.8021C461.235 44.4294 458.733 46.5674 455.785 48.0073C454.544 48.6544 453.23 49.1676 451.867 49.5371C449.95 50.0861 447.956 50.3624 445.953 50.3569C442.329 50.357 438.77 49.4526 435.635 47.7351C432.499 46.0175 429.9 43.5478 428.098 40.5757C426.302 37.6599 425.353 34.3467 425.349 30.9724C425.341 30.9346 425.349 30.8998 425.342 30.8649C425.355 25.6973 427.534 20.7451 431.403 17.0939C435.271 13.4427 440.514 11.3904 445.98 11.3867C446.351 11.3947 446.723 11.402 447.09 11.4259C450.424 11.5788 453.665 12.5184 456.516 14.1589Z" fill="#8DDBE0"/>
<path d="M444.702 42.9312V40.0646C443.738 39.9497 442.794 39.7128 441.897 39.3603C440.967 39.0157 440.11 38.5149 439.368 37.882L441.311 35.0458C441.985 35.5478 442.723 35.9674 443.509 36.2947C444.184 36.5678 444.911 36.7095 445.646 36.7115C446.309 36.7648 446.971 36.5929 447.511 36.2265C447.72 36.0344 447.881 35.8013 447.984 35.5437C448.086 35.286 448.127 35.0102 448.104 34.7358C448.108 34.4977 448.057 34.2617 447.955 34.0439C447.853 33.8261 447.703 33.6316 447.514 33.4738C447.062 33.0905 446.563 32.7583 446.029 32.4842C445.433 32.1681 444.793 31.8534 444.109 31.5403C443.426 31.2276 442.781 30.8477 442.184 30.4068C441.597 29.9765 441.094 29.452 440.7 28.8573C440.287 28.1992 440.083 27.4434 440.11 26.6791C440.06 25.4075 440.497 24.1614 441.339 23.1691C442.21 22.2152 443.408 21.5817 444.723 21.38V18.4277H447.664V21.3227C448.564 21.4346 449.43 21.7182 450.211 22.1562C450.937 22.578 451.599 23.0909 452.18 23.681L449.934 26.0866C449.464 25.6602 448.934 25.298 448.358 25.0105C447.82 24.7633 447.228 24.6389 446.63 24.6475C446.038 24.6098 445.451 24.7609 444.962 25.0766C444.757 25.2521 444.598 25.4704 444.497 25.7142C444.397 25.9579 444.358 26.2204 444.384 26.4808C444.382 26.7042 444.435 26.925 444.537 27.1263C444.639 27.3277 444.789 27.5043 444.974 27.6426C445.431 27.997 445.929 28.3004 446.46 28.5466C447.056 28.8341 447.697 29.1308 448.385 29.4368C449.067 29.7415 449.711 30.117 450.305 30.5564C450.9 30.9959 451.403 31.5358 451.79 32.1487C452.205 32.8529 452.409 33.6512 452.379 34.457C452.412 35.7287 451.995 36.9744 451.193 37.996C450.302 39.0367 449.04 39.7339 447.643 39.9564V42.9334L444.702 42.9312Z" fill="white"/>
<path d="M138.188 493.267H298.301C310.563 493.267 320.502 483.871 320.502 472.28L320.502 144.955C320.502 133.365 310.563 123.969 298.301 123.969H138.188C125.927 123.969 115.987 133.365 115.987 144.955L115.987 472.28C115.987 483.871 125.927 493.267 138.188 493.267Z" fill="white"/>
<path d="M110.979 472.28V144.957C110.986 138.138 113.855 131.6 118.956 126.778C124.056 121.955 130.972 119.243 138.186 119.234H298.301C305.515 119.242 312.431 121.955 317.532 126.776C322.632 131.598 325.502 138.136 325.51 144.955V472.278C325.502 479.097 322.632 485.634 317.532 490.456C312.431 495.278 305.515 497.99 298.301 497.997H138.186C130.973 497.989 124.058 495.277 118.957 490.456C113.857 485.635 110.988 479.098 110.979 472.28ZM138.186 128.703C133.628 128.707 129.257 130.421 126.034 133.468C122.811 136.515 120.998 140.646 120.993 144.955V472.278C120.997 476.587 122.81 480.719 126.033 483.766C129.257 486.813 133.627 488.527 138.186 488.532H298.301C302.859 488.527 307.23 486.814 310.453 483.767C313.676 480.72 315.489 476.589 315.494 472.28V144.957C315.489 140.648 313.676 136.517 310.453 133.47C307.23 130.423 302.859 128.71 298.301 128.705L138.186 128.703Z" fill="#DEE8F5"/>
<path d="M243.12 146.453H193.37C190.669 146.453 188.079 145.439 186.17 143.634C184.26 141.829 183.187 139.381 183.187 136.828V123.969H253.302V136.828C253.302 139.381 252.229 141.829 250.32 143.634C248.41 145.439 245.82 146.453 243.12 146.453Z" fill="#DEE8F5"/>
<path d="M260.166 209.278H176.322C170.421 209.278 165.637 213.8 165.637 219.378V243.708C165.637 249.286 170.421 253.808 176.322 253.808H260.166C266.067 253.808 270.851 249.286 270.851 243.708V219.378C270.851 213.8 266.067 209.278 260.166 209.278Z" fill="#262626"/>
<path d="M218.244 397.71C250.534 397.71 276.711 372.965 276.711 342.442C276.711 311.919 250.534 287.175 218.244 287.175C185.954 287.175 159.777 311.919 159.777 342.442C159.777 372.965 185.954 397.71 218.244 397.71Z" fill="#F3F5FD"/>
<path d="M240.871 332.655H237.645V325.849C237.645 320.985 235.601 316.319 231.962 312.879C228.323 309.439 223.387 307.507 218.241 307.507C213.094 307.507 208.159 309.439 204.52 312.879C200.881 316.319 198.836 320.985 198.836 325.849V332.655H195.614C194.885 332.655 194.163 332.791 193.489 333.055C192.815 333.319 192.203 333.705 191.687 334.193C191.171 334.68 190.762 335.259 190.483 335.896C190.204 336.533 190.06 337.216 190.061 337.905V372.127C190.06 372.816 190.204 373.499 190.483 374.136C190.762 374.773 191.171 375.352 191.687 375.84C192.203 376.327 192.815 376.714 193.489 376.978C194.163 377.242 194.885 377.377 195.614 377.377H240.868C241.598 377.377 242.32 377.242 242.994 376.978C243.668 376.714 244.28 376.327 244.796 375.84C245.311 375.352 245.72 374.773 245.999 374.136C246.278 373.499 246.422 372.816 246.422 372.127V337.905C246.422 336.514 245.837 335.179 244.797 334.194C243.756 333.209 242.344 332.656 240.871 332.655ZM205.148 325.849C205.148 322.566 206.528 319.417 208.984 317.096C211.44 314.774 214.771 313.47 218.245 313.47C221.718 313.47 225.049 314.774 227.505 317.096C229.961 319.417 231.341 322.566 231.341 325.849V332.655H205.148V325.849Z" fill="#367CFF"/>
<path d="M218.244 362.964C222.682 362.964 226.28 359.563 226.28 355.368C226.28 351.172 222.682 347.771 218.244 347.771C213.806 347.771 210.208 351.172 210.208 355.368C210.208 359.563 213.806 362.964 218.244 362.964Z" fill="white"/>
<path d="M80.3207 198.514C80.3207 198.514 86.498 196.006 86.498 180.666L98.9147 179.47C98.9147 179.47 96.3553 193.024 102.167 197.84L80.3207 198.514Z" fill="#E98862"/>
<path d="M80.0711 174.22C80.5166 178.909 82.8056 183.494 86.9903 185.321C91.5397 187.45 96.571 188.494 101.645 188.363C115.125 188.363 114.972 159.379 109.101 153.296C103.229 147.214 84.265 149.307 81.1848 158.481C79.5917 163.226 79.6463 169.761 80.0711 174.22Z" fill="#E98862"/>
<path d="M116.201 164.446C116.201 164.446 115.351 143.788 91.1482 146.97C89.3682 147.234 87.6452 147.769 86.0463 148.555C84.8807 147.5 83.4789 146.706 81.9448 146.233C80.4107 145.76 78.7836 145.619 77.1841 145.821C75.5846 146.023 74.0537 146.563 72.705 147.4C71.3562 148.238 70.2241 149.352 69.3927 150.659C68.5612 151.966 68.0516 153.434 67.9017 154.953C67.7518 156.471 67.9655 158.003 68.5268 159.433C69.0881 160.863 69.9828 162.155 71.1444 163.214C72.306 164.273 73.7048 165.071 75.2372 165.549C75.2418 165.726 75.2372 165.899 75.2495 166.078C75.9224 179.468 82.635 185.76 85.4371 186.786C97.2586 191.114 102.187 185.664 107.267 165.076C110.258 165.102 113.247 164.891 116.201 164.446Z" fill="#0F1011"/>
<path d="M108.351 175.56C108.335 176.733 107.831 177.853 106.948 178.677C106.065 179.501 104.874 179.963 103.633 179.963C102.392 179.963 101.201 179.501 100.318 178.677C99.4346 177.853 98.9306 176.733 98.9147 175.56C98.9041 174.971 99.0189 174.387 99.2523 173.841C99.4857 173.295 99.8329 172.8 100.273 172.383C100.713 171.967 101.238 171.639 101.815 171.418C102.392 171.198 103.011 171.089 103.633 171.099C106.994 171.255 108.351 173.096 108.351 175.56Z" fill="#E98862"/>
<path d="M67.0658 491.967C67.0658 491.967 67.1196 476.176 67.1196 474.777H50.9889C50.9889 476.171 50.9352 491.918 50.9352 491.918L67.0658 491.967Z" fill="#E98862"/>
<path d="M86.6746 497.865C87.1084 497.863 87.5372 497.776 87.934 497.611C88.3309 497.445 88.6874 497.204 88.9812 496.902C89.275 496.6 89.4999 496.245 89.6417 495.857C89.7835 495.469 89.8393 495.058 89.8055 494.649C89.7588 494.083 89.5417 493.541 89.1799 493.087C88.818 492.633 88.3264 492.286 87.763 492.087L68.9885 486.143C68.6248 486.029 68.2394 485.991 67.8586 486.031C67.4779 486.071 67.1107 486.188 66.7824 486.375C64.2013 488.068 61.1137 488.933 57.9735 488.844C55.5277 488.679 53.18 487.869 51.1979 486.504C51.0238 486.369 50.8126 486.283 50.5889 486.258C50.3653 486.232 50.1385 486.266 49.935 486.358C49.7314 486.449 49.5596 486.593 49.4395 486.774C49.3195 486.954 49.2561 487.162 49.2568 487.375V496.054C49.2567 496.31 49.3102 496.563 49.414 496.8C49.5179 497.036 49.6702 497.251 49.8621 497.432C50.054 497.612 50.2818 497.756 50.5324 497.853C50.783 497.95 51.0515 497.999 51.3223 497.998L86.6746 497.865Z" fill="#C1D8ED"/>
<path d="M131.339 490.144C133.039 476.625 133.039 475.235 133.039 474.777H116.909C116.909 474.732 116.909 474.672 116.913 474.6C116.856 475.729 116.042 482.612 115.321 488.343L131.339 490.144Z" fill="#E98862"/>
<path d="M75.0973 486.726L46.7788 484.464C50.2292 434.57 60.9031 273.322 60.9031 273.322L119.34 276.735L119.941 280.605L120.146 280.548C126.997 314.882 129.913 352.803 135.467 387.381C135.858 419.401 135.966 452.941 137.291 484.875L108.875 485.332C108.965 454.162 108.146 421.548 107.176 390.286C102.327 365.355 98.5313 339.264 92.954 314.089C88.081 365.937 80.2307 437.204 75.0973 486.726Z" fill="#262626"/>
<path d="M150.992 497.865C151.426 497.863 151.855 497.776 152.252 497.61C152.649 497.445 153.005 497.204 153.299 496.902C153.593 496.6 153.818 496.244 153.96 495.857C154.102 495.469 154.157 495.058 154.124 494.649C154.077 494.083 153.86 493.541 153.498 493.087C153.136 492.633 152.645 492.286 152.081 492.087L133.306 486.143C132.942 486.029 132.557 485.991 132.176 486.031C131.795 486.071 131.428 486.188 131.1 486.375C128.519 488.068 125.431 488.933 122.291 488.844C119.845 488.679 117.498 487.869 115.516 486.504C115.342 486.369 115.131 486.284 114.907 486.258C114.683 486.232 114.457 486.267 114.253 486.358C114.05 486.449 113.878 486.593 113.757 486.774C113.637 486.954 113.574 487.162 113.574 487.375V496.054C113.574 496.31 113.628 496.563 113.732 496.8C113.836 497.036 113.988 497.251 114.18 497.431C114.372 497.612 114.599 497.755 114.85 497.852C115.101 497.95 115.369 497.999 115.64 497.998L150.992 497.865Z" fill="#C1D8ED"/>
<path d="M38.7465 305.861L47.9241 306.997C47.9241 309.161 49.1324 316.395 47.1882 316.912C46.4493 317.108 45.6266 315.015 45.1227 313.456C43.1901 316.533 42.4681 323.911 42.2092 328.071C42.1916 328.346 42.0865 328.61 41.9078 328.828C41.7291 329.046 41.4851 329.208 41.2075 329.293C40.9299 329.377 40.6318 329.381 40.352 329.303C40.0722 329.225 39.8237 329.069 39.6391 328.856C32.3987 320.466 38.7465 305.861 38.7465 305.861Z" fill="#E98862"/>
<path d="M120.253 243.942C120.502 223.806 131.698 196.383 106.215 195.352C103.132 195.227 88.0826 195.207 77.0653 195.207C69.6629 195.207 63.5863 197.354 60.0775 200.672C47.9787 212.108 62.8289 231.597 62.8289 246.851C62.8289 262.106 55.5317 268.937 56.0694 276.763C56.9143 289.067 120.153 286.16 123.375 279.171C126.692 271.958 119.958 267.517 120.253 243.942Z" fill="#30576C" fill-opacity="0.9"/>
<path d="M50.5596 309.46L56.8889 253.601L73.578 209.585L57.8122 204.242L40.7875 249.147C40.5631 249.737 40.4143 250.351 40.3443 250.975L33.9097 307.774L50.5596 309.46Z" fill="#30576C" fill-opacity="0.9"/>
<path d="M185.907 237.023C185.907 237.023 196.845 234.259 198.427 232.303C200.009 230.348 196.268 223.681 196.268 223.681C196.268 223.681 207.217 219.554 206.183 217.879C204.962 215.901 191.275 222.824 191.275 222.824C191.275 222.824 194.271 219.539 192.828 218.652C192.236 218.289 191.457 218.672 189.218 220.948C186.67 223.541 182.274 227.212 182.274 227.212L185.907 237.023Z" fill="#E98862"/>
<path d="M145.446 249.91C146.247 249.91 147.044 249.801 147.813 249.586L189.76 237.896L185.025 222.71L148.321 232.937L118.594 199.631L105.792 209.841L139.045 247.096C139.831 247.977 140.811 248.686 141.916 249.172C143.022 249.658 144.227 249.91 145.446 249.91Z" fill="#30576C" fill-opacity="0.9"/>
<path d="M208.921 241.876L211.708 237.79C213.917 239.387 215.849 240.206 217.904 240.206C220.367 240.206 221.451 239.241 221.451 237.375C221.451 233.148 209.98 233.224 209.98 225.812C209.98 221.046 213.472 218.011 218.978 218.011C220.542 217.99 222.092 218.291 223.521 218.893C224.949 219.494 226.222 220.383 227.251 221.497L224.054 224.958C222.475 223.6 221.135 222.885 219.321 222.885C217.23 222.885 216.095 223.684 216.095 225.527C216.095 229.448 227.566 229.102 227.566 236.954C227.566 241.674 224.263 245.087 217.903 245.087C214.609 245.015 211.441 243.882 208.921 241.876ZM216.564 213.981H220.803V219.898H216.564V213.981ZM216.564 242.614H220.803V249.105H216.564V242.614Z" fill="white"/>
<path d="M804.087 250.932H496.25V444.327H804.087V250.932Z" fill="#DEE8F5"/>
<path opacity="0.55" d="M807.528 247.826H489.534V296.976H807.528V247.826Z" fill="#C1D8ED"/>
<path d="M861.556 457.895H438.782V477.948H861.556V457.895Z" fill="#F3F5FD"/>
<path d="M846.724 437.841H453.613V457.894H846.724V437.841Z" fill="#F3F5FD"/>
<path d="M846.724 452.529H453.613V457.894H846.724V452.529Z" fill="#DEE8F5"/>
<path d="M861.556 472.582H438.782V477.947H861.556V472.582Z" fill="#DEE8F5"/>
<path d="M875.735 477.946H425.167V498H875.735V477.946Z" fill="#F3F5FD"/>
<path d="M875.735 492.636H425.167V498.001H875.735V492.636Z" fill="#DEE8F5"/>
<path d="M517.565 266.006H483.546V428.816H517.565V266.006Z" fill="#F3F5FD"/>
<path d="M603.384 266.006H569.365V428.816H603.384V266.006Z" fill="#F3F5FD"/>
<path d="M816.791 266.006H782.772V428.816H816.791V266.006Z" fill="#F3F5FD"/>
<path d="M473.301 250.932H527.81V269.406C527.81 270.025 527.55 270.619 527.087 271.057C526.624 271.495 525.996 271.741 525.341 271.741H475.771C475.116 271.741 474.488 271.495 474.025 271.057C473.562 270.619 473.302 270.025 473.302 269.406L473.301 250.932Z" fill="#C1D8ED"/>
<path d="M559.119 250.932H613.629V269.406C613.629 269.713 613.565 270.016 613.441 270.3C613.317 270.583 613.135 270.84 612.905 271.057C612.676 271.274 612.404 271.446 612.104 271.563C611.805 271.68 611.483 271.741 611.159 271.741H561.59C560.935 271.741 560.307 271.495 559.843 271.057C559.38 270.619 559.12 270.025 559.12 269.406L559.119 250.932Z" fill="#C1D8ED"/>
<path d="M772.527 250.932H827.036V269.406C827.036 270.025 826.776 270.619 826.313 271.057C825.85 271.495 825.222 271.741 824.567 271.741H774.997C774.342 271.741 773.714 271.495 773.251 271.057C772.788 270.619 772.528 270.025 772.528 269.406L772.527 250.932Z" fill="#C1D8ED"/>
<path d="M475.771 423.244H525.341C525.665 423.244 525.986 423.304 526.286 423.422C526.586 423.539 526.858 423.711 527.087 423.928C527.316 424.145 527.498 424.402 527.622 424.685C527.747 424.968 527.81 425.272 527.81 425.579V437.841H473.301V425.579C473.301 425.273 473.365 424.969 473.489 424.686C473.613 424.402 473.795 424.145 474.024 423.928C474.254 423.711 474.526 423.539 474.826 423.422C475.126 423.304 475.447 423.244 475.771 423.244Z" fill="#C1D8ED"/>
<path d="M561.59 423.244H611.159C611.483 423.244 611.805 423.304 612.104 423.422C612.404 423.539 612.676 423.711 612.905 423.928C613.135 424.145 613.317 424.402 613.441 424.685C613.565 424.968 613.629 425.272 613.629 425.579V437.841H559.119V425.579C559.119 425.273 559.183 424.969 559.307 424.686C559.431 424.402 559.613 424.145 559.843 423.928C560.072 423.711 560.344 423.539 560.644 423.422C560.944 423.304 561.265 423.244 561.59 423.244Z" fill="#C1D8ED"/>
<path d="M774.997 423.244H824.567C824.891 423.244 825.212 423.304 825.512 423.422C825.812 423.539 826.084 423.711 826.313 423.928C826.542 424.145 826.724 424.402 826.848 424.685C826.973 424.968 827.036 425.272 827.036 425.579V437.841H772.527V425.579C772.527 425.273 772.591 424.969 772.715 424.686C772.839 424.402 773.021 424.145 773.25 423.928C773.48 423.711 773.752 423.539 774.052 423.422C774.352 423.304 774.673 423.244 774.997 423.244Z" fill="#C1D8ED"/>
<path d="M496.233 280.674C496.233 279.78 495.466 279.056 494.521 279.056C493.575 279.056 492.808 279.78 492.808 280.674V414.149C492.808 415.043 493.575 415.767 494.521 415.767C495.466 415.767 496.233 415.043 496.233 414.149V280.674Z" fill="#C1D8ED"/>
<path d="M508.302 280.674C508.302 279.78 507.536 279.056 506.59 279.056C505.645 279.056 504.878 279.78 504.878 280.674V414.149C504.878 415.043 505.645 415.767 506.59 415.767C507.536 415.767 508.302 415.043 508.302 414.149V280.674Z" fill="#C1D8ED"/>
<path d="M582.052 280.674C582.052 279.78 581.285 279.056 580.34 279.056C579.394 279.056 578.627 279.78 578.627 280.674V414.149C578.627 415.043 579.394 415.767 580.34 415.767C581.285 415.767 582.052 415.043 582.052 414.149V280.674Z" fill="#C1D8ED"/>
<path d="M594.12 280.674C594.12 279.78 593.354 279.056 592.408 279.056C591.463 279.056 590.696 279.78 590.696 280.674V414.149C590.696 415.043 591.463 415.767 592.408 415.767C593.354 415.767 594.12 415.043 594.12 414.149V280.674Z" fill="#C1D8ED"/>
<path d="M733.621 266.006H699.602V428.816H733.621V266.006Z" fill="#F3F5FD"/>
<path d="M689.357 250.932H743.866V269.406C743.866 270.025 743.606 270.619 743.143 271.057C742.68 271.495 742.051 271.741 741.396 271.741H691.827C691.172 271.741 690.544 271.495 690.081 271.057C689.618 270.619 689.357 270.025 689.357 269.406L689.357 250.932Z" fill="#C1D8ED"/>
<path d="M691.827 423.244H741.396C741.72 423.244 742.041 423.304 742.341 423.422C742.64 423.539 742.913 423.711 743.142 423.928C743.371 424.145 743.553 424.402 743.677 424.685C743.801 424.968 743.865 425.272 743.865 425.579V437.841H689.357V425.579C689.357 425.273 689.42 424.969 689.545 424.686C689.669 424.402 689.851 424.145 690.08 423.928C690.309 423.711 690.582 423.539 690.882 423.422C691.181 423.304 691.503 423.244 691.827 423.244Z" fill="#C1D8ED"/>
<path d="M712.289 280.674C712.289 279.78 711.522 279.056 710.577 279.056C709.631 279.056 708.865 279.78 708.865 280.674V414.149C708.865 415.043 709.631 415.767 710.577 415.767C711.522 415.767 712.289 415.043 712.289 414.149V280.674Z" fill="#C1D8ED"/>
<path d="M724.358 280.674C724.358 279.78 723.591 279.056 722.646 279.056C721.7 279.056 720.934 279.78 720.934 280.674V414.149C720.934 415.043 721.7 415.767 722.646 415.767C723.591 415.767 724.358 415.043 724.358 414.149V280.674Z" fill="#C1D8ED"/>
<path d="M795.459 280.674C795.459 279.78 794.692 279.056 793.747 279.056C792.801 279.056 792.034 279.78 792.034 280.674V414.149C792.034 415.043 792.801 415.767 793.747 415.767C794.692 415.767 795.459 415.043 795.459 414.149V280.674Z" fill="#C1D8ED"/>
<path d="M807.528 280.674C807.528 279.78 806.762 279.056 805.816 279.056C804.871 279.056 804.104 279.78 804.104 280.674V414.149C804.104 415.043 804.871 415.767 805.816 415.767C806.762 415.767 807.528 415.043 807.528 414.149V280.674Z" fill="#C1D8ED"/>
<path d="M841.908 243.683V255.525C841.907 256.162 841.64 256.773 841.163 257.223C840.687 257.674 840.04 257.927 839.367 257.927H460.18C459.506 257.926 458.86 257.673 458.384 257.223C457.908 256.773 457.64 256.162 457.64 255.525V244.192C457.64 243.633 457.784 243.082 458.061 242.588C458.338 242.094 458.738 241.671 459.227 241.356L648.125 119.829C648.727 119.442 649.439 119.235 650.167 119.235C650.895 119.235 651.606 119.442 652.208 119.829L840.322 240.847C840.811 241.162 841.21 241.585 841.487 242.079C841.763 242.573 841.908 243.124 841.908 243.683Z" fill="#DEE8F5"/>
<path d="M791.28 237.941H509.057C508.849 237.941 508.645 237.878 508.477 237.76C508.309 237.643 508.185 237.478 508.124 237.29C508.062 237.101 508.066 236.899 508.135 236.712C508.204 236.526 508.335 236.366 508.508 236.255L649.617 145.471C649.779 145.367 649.97 145.312 650.166 145.312C650.362 145.312 650.553 145.367 650.715 145.471L791.829 236.255C792.002 236.366 792.133 236.526 792.202 236.712C792.271 236.898 792.275 237.101 792.214 237.289C792.152 237.478 792.028 237.643 791.86 237.76C791.692 237.877 791.489 237.941 791.28 237.941Z" fill="#F3F5FD"/>
</g>
<defs>
<clipPath id="clip0_169_4911">
<rect width="892" height="498" fill="white"/>
</clipPath>
</defs>
</svg>
